<?xml version="1.0" standalone="no"?>
<!DOCTYPE svg PUBLIC "-//W3C//DTD SVG 20010904//EN"
 "http://www.w3.org/TR/2001/REC-SVG-20010904/DTD/svg10.dtd">
<svg version="1.0" xmlns="http://www.w3.org/2000/svg"
 width="626.000000pt" height="626.000000pt" viewBox="0 0 626.000000 626.000000"
 preserveAspectRatio="xMidYMid meet">

<g transform="translate(0.000000,626.000000) scale(0.100000,-0.100000)"
fill="#000000" stroke="none">
<path d="M3143 4397 c43 -42 67 -76 32 -47 -13 11 -14 10 -9 -3 8 -22 -14 -60
-32 -53 -48 19 156 -199 271 -289 105 -82 146 -127 86 -96 -10 6 -23 6 -32 1
-11 -8 -12 -13 -1 -30 10 -17 10 -20 -2 -20 -8 0 -18 5 -21 10 -3 6 -14 10
-24 10 -27 0 -123 73 -236 179 -69 65 -102 92 -91 74 4 -8 2 -13 -7 -13 -7 0
-24 -11 -37 -25 l-23 -24 45 -43 c25 -24 74 -69 108 -100 34 -32 55 -58 46
-58 -8 0 -17 -4 -20 -9 -9 -14 5 -42 17 -34 6 3 7 1 3 -5 -11 -18 67 -157 153
-272 43 -58 119 -144 170 -192 50 -48 91 -91 91 -95 -1 -24 -38 -50 -67 -48
-37 2 -79 35 -175 138 -62 66 -68 70 -74 50 -3 -13 -12 -23 -19 -23 -7 0 -29
-18 -50 -41 -20 -22 -38 -39 -39 -37 -2 1 -28 42 -59 89 -68 106 -121 211
-157 307 l-27 74 -64 22 c-35 13 -73 26 -84 31 l-20 8 20 -16 c20 -16 19 -16
-5 -11 -22 4 -22 3 5 -10 l30 -15 -55 0 c-87 -1 -226 17 -338 44 -92 22 -123
25 -280 23 -153 -2 -163 -3 -77 -8 65 -3 94 -8 83 -14 -10 -4 -15 -12 -12 -17
3 -5 -10 -10 -28 -10 l-33 -2 35 -7 c31 -6 32 -8 15 -15 -19 -9 -19 -9 5 -16
25 -7 25 -7 -3 -8 -16 -1 -26 -5 -23 -10 4 -5 1 -11 -5 -13 -7 -2 37 -13 97
-23 86 -16 158 -20 347 -20 169 -1 241 -5 249 -13 9 -9 8 -12 -6 -12 -9 0 -15
-4 -12 -9 4 -5 0 -12 -6 -14 -7 -3 -3 -6 9 -6 42 -2 35 -21 -9 -22 -24 -1 -34
-3 -23 -6 45 -10 51 -15 30 -23 l-20 -9 20 -1 c16 0 17 -2 5 -9 -33 -20 -228
-34 -390 -28 -125 4 -180 2 -225 -8 l-60 -14 50 5 c36 3 46 2 35 -5 -13 -10
-13 -11 0 -11 9 0 11 -3 5 -8 -6 -4 -10 -14 -9 -22 0 -8 2 -28 2 -44 l2 -29
213 5 c116 2 204 3 194 0 -9 -2 -15 -8 -11 -13 3 -5 9 -7 14 -4 4 3 7 -2 6
-11 -1 -8 -9 -19 -16 -24 -8 -5 -11 -12 -7 -16 9 -10 -36 -50 -76 -67 -17 -8
-71 -31 -119 -52 -48 -21 -85 -42 -82 -46 3 -5 -1 -6 -9 -3 -8 3 -50 -11 -93
-30 -76 -34 -93 -51 -21 -21 49 20 64 19 44 -3 -28 -30 -21 -50 19 -58 24 -4
79 2 166 21 71 15 130 25 132 23 8 -11 66 -127 66 -130 0 -3 -18 -10 -41 -17
-23 -7 -39 -14 -37 -17 3 -2 24 3 48 11 24 8 45 13 47 11 2 -2 -39 -34 -92
-71 -56 -39 -93 -71 -89 -77 4 -7 2 -8 -5 -4 -13 9 -74 -32 -66 -44 3 -5 19
-11 35 -15 17 -4 28 -10 25 -14 -5 -9 101 22 156 46 44 18 72 11 87 -22 6 -14
17 -25 23 -25 8 0 8 -4 -1 -15 -7 -8 -9 -15 -5 -15 13 0 177 80 226 110 27 16
49 27 49 23 0 -4 -48 -56 -107 -116 l-108 -108 85 47 c47 25 115 64 152 86 55
32 70 38 87 29 11 -6 28 -8 38 -4 15 6 16 5 5 -9 -7 -9 -9 -18 -5 -21 15 -9
58 -1 56 11 -2 6 3 9 10 6 7 -2 22 4 32 16 41 45 30 15 -21 -60 -31 -44 -52
-80 -49 -80 13 0 122 90 200 164 45 43 81 72 84 65 2 -7 -3 -17 -12 -24 -14
-10 -21 -33 -29 -90 -2 -11 -13 -27 -26 -36 -12 -8 -20 -18 -17 -21 3 -2 -9
-45 -25 -94 -30 -87 -90 -297 -92 -321 -1 -7 -5 -13 -9 -13 -4 0 -28 -37 -54
-82 -26 -46 -50 -87 -53 -92 -3 -5 1 -6 8 -1 8 5 11 3 8 -6 -3 -8 -10 -14 -15
-14 -6 0 -15 -4 -20 -9 -5 -5 -2 -6 6 -1 10 6 12 2 6 -16 -5 -17 3 -10 26 19
24 33 29 46 19 52 -7 4 -9 13 -5 20 6 9 10 9 17 -1 7 -10 8 -9 4 6 -3 12 6 40
24 70 l30 50 -6 -60 c-3 -33 -7 -69 -9 -80 -2 -11 0 -37 3 -57 l7 -37 75 58
c76 60 113 86 348 244 172 116 307 229 382 319 69 83 152 240 171 322 l12 56
41 0 c55 0 166 -25 218 -48 24 -10 64 -35 90 -55 l47 -36 -16 52 c-17 59 -29
85 -50 109 -12 14 -13 26 -4 67 12 54 1 143 -18 149 -6 2 -8 9 -4 15 3 7 3 9
-2 5 -4 -4 -29 4 -56 17 -103 53 -192 70 -349 69 -127 -1 -156 -5 -235 -29
-49 -15 -102 -29 -117 -32 -16 -3 -28 -9 -28 -13 0 -4 -11 -12 -25 -18 -25
-12 -25 -12 -9 13 16 24 16 25 -2 18 -11 -4 -25 -14 -32 -22 -8 -9 -11 -11 -8
-4 4 6 2 14 -3 17 -5 4 -12 37 -16 74 -14 154 -15 159 -37 157 -11 -1 -24 -8
-29 -16 -7 -11 -9 -10 -9 5 0 12 -5 16 -14 13 -9 -4 -17 1 -19 11 -3 9 -5 4
-6 -13 -2 -28 -3 -28 -11 -8 -15 38 35 285 74 362 12 23 10 32 -19 84 -18 33
-36 54 -39 48 -4 -6 -4 -17 0 -23 5 -7 -8 1 -27 17 -46 40 -142 151 -181 209
-29 44 -100 111 -118 111 -5 0 -12 4 -17 9 -5 5 -3 6 5 2 27 -16 9 4 -50 53
-55 46 -57 47 -15 8z m-687 -1619 c4 -6 3 -8 -4 -4 -6 3 -13 2 -17 -4 -3 -5
-11 -10 -18 -10 -6 0 -2 7 9 15 23 18 21 17 30 3z"/>
<path d="M3042 4154 c10 -10 20 -16 22 -13 3 3 -5 11 -17 18 -21 13 -21 12 -5
-5z"/>
<path d="M3722 3380 c0 -14 2 -19 5 -12 2 6 2 18 0 25 -3 6 -5 1 -5 -13z"/>
<path d="M2418 3243 c7 -3 16 -2 19 1 4 3 -2 6 -13 5 -11 0 -14 -3 -6 -6z"/>
<path d="M2369 2743 c-13 -16 -12 -17 4 -4 9 7 17 15 17 17 0 8 -8 3 -21 -13z"/>
<path d="M3143 2710 c-34 -20 -47 -38 -15 -21 23 13 58 40 52 41 -3 0 -20 -9
-37 -20z"/>
<path d="M3353 2086 c-10 -11 -9 -15 2 -20 10 -4 15 1 15 14 0 23 -1 24 -17 6z"/>
</g>
</svg>
