<?xml version="1.0" standalone="no"?>
<!DOCTYPE svg PUBLIC "-//W3C//DTD SVG 20010904//EN"
 "http://www.w3.org/TR/2001/REC-SVG-20010904/DTD/svg10.dtd">
<svg version="1.0" xmlns="http://www.w3.org/2000/svg"
 width="1280.000000pt" height="1280.000000pt" viewBox="0 0 1280.000000 1280.000000"
 preserveAspectRatio="xMidYMid meet">

<g transform="translate(0.000000,1280.000000) scale(0.100000,-0.100000)"
fill="#000000" stroke="none">
<path d="M0 6400 l0 -6400 6400 0 6400 0 0 6400 0 6400 -6400 0 -6400 0 0
-6400z m9232 422 c-9 -20 -38 -72 -64 -116 -27 -43 -48 -83 -48 -88 0 -10 35
-11 297 -9 117 2 222 0 233 -4 14 -4 20 -15 20 -35 0 -22 -11 -37 -52 -70
l-52 -41 -71 5 c-77 5 -224 14 -357 20 l-87 5 -30 -48 c-17 -26 -31 -54 -31
-62 0 -8 -9 -25 -20 -39 -11 -14 -20 -32 -20 -41 0 -8 -12 -35 -28 -60 -15
-24 -33 -55 -40 -69 -6 -14 -16 -32 -21 -40 -6 -8 -17 -28 -25 -45 -37 -74
-88 -173 -106 -205 -38 -69 -73 -155 -78 -192 -9 -69 44 -97 121 -64 43 17
161 129 287 271 86 96 108 115 132 115 22 0 31 -6 39 -27 5 -14 9 -32 7 -38
-4 -17 -223 -261 -328 -365 -148 -148 -327 -217 -440 -168 -57 24 -77 43 -99
92 -18 42 -21 121 -7 165 5 15 -16 -2 -60 -49 -130 -137 -256 -209 -384 -217
-78 -6 -117 5 -164 46 -49 43 -69 139 -47 219 5 17 8 32 5 32 -2 0 -38 -27
-80 -60 -42 -33 -88 -67 -102 -74 -15 -8 -35 -23 -45 -34 -10 -10 -37 -28 -60
-38 -23 -10 -65 -35 -94 -56 -28 -21 -77 -49 -107 -62 -31 -14 -56 -29 -57
-33 -3 -30 -10 -48 -29 -68 -12 -13 -29 -37 -38 -54 -27 -48 -74 -118 -111
-164 -18 -23 -37 -51 -41 -62 -10 -27 -160 -194 -239 -268 -136 -125 -332
-234 -501 -279 -54 -14 -113 -20 -210 -21 -127 -2 -138 0 -190 24 -70 34 -90
53 -117 112 -29 59 -24 120 15 192 36 65 107 118 262 196 69 35 127 66 130 69
3 4 12 7 20 7 8 1 58 17 110 36 52 20 149 56 215 80 122 46 285 115 385 165
45 22 59 36 76 72 12 25 26 50 30 56 9 10 35 57 62 107 20 41 7 45 -31 11 -36
-35 -131 -104 -141 -104 -4 0 -28 -10 -54 -21 -30 -14 -74 -23 -127 -26 -70
-4 -85 -1 -120 19 -56 33 -82 77 -90 153 -4 35 -4 69 1 77 4 7 -35 -25 -87
-72 -153 -139 -205 -166 -338 -176 -104 -8 -144 3 -189 49 -36 38 -57 117 -46
182 9 56 68 170 122 235 43 53 64 74 166 168 50 46 57 62 27 62 -10 0 -45 13
-77 30 -32 16 -62 30 -66 30 -9 0 -117 -113 -165 -173 -44 -55 -79 -70 -100
-42 -28 40 -13 64 144 229 64 68 65 70 60 114 -7 61 23 124 70 146 46 22 66
20 91 -7 45 -47 38 -97 -21 -164 -19 -22 -19 -23 -2 -30 33 -12 175 15 243 47
68 32 110 38 130 18 31 -31 6 -83 -104 -207 -46 -52 -91 -110 -100 -128 -8
-19 -29 -54 -45 -78 -41 -61 -60 -120 -62 -193 -2 -46 2 -65 13 -73 26 -17 98
-3 143 27 57 39 237 222 237 242 0 5 10 14 23 21 44 25 120 128 167 226 26 55
50 107 53 116 7 22 50 29 189 29 l119 0 -36 -62 c-20 -35 -43 -79 -52 -98 -8
-19 -19 -42 -24 -50 -4 -8 -20 -40 -35 -70 -15 -30 -39 -73 -54 -95 -15 -22
-31 -51 -35 -65 -4 -14 -14 -32 -22 -41 -21 -24 -37 -142 -23 -168 16 -30 65
-27 125 8 70 40 350 332 389 404 44 82 105 203 110 219 4 15 20 17 141 15 82
-1 135 -6 135 -12 0 -5 -9 -23 -20 -40 -11 -16 -20 -37 -20 -47 0 -9 -4 -18
-8 -20 -5 -1 -27 -39 -49 -83 -73 -143 -110 -213 -127 -236 -9 -13 -16 -31
-16 -39 0 -9 -13 -34 -30 -56 -16 -21 -30 -46 -30 -55 0 -9 -8 -27 -18 -40
-27 -34 -67 -118 -60 -125 9 -8 136 76 268 177 150 114 390 368 390 412 0 4
16 41 35 81 41 87 39 86 216 86 l118 0 -27 -47 c-16 -27 -57 -104 -91 -173
-35 -69 -71 -136 -80 -150 -67 -95 -110 -250 -81 -285 37 -45 145 12 270 142
236 246 251 263 277 320 14 32 40 87 58 123 19 36 42 83 53 105 11 22 36 72
56 112 33 64 35 72 19 77 -22 6 -176 21 -220 21 -17 0 -34 2 -37 5 -3 3 20 21
51 40 55 33 59 33 165 32 l108 -1 20 37 c10 20 26 52 35 70 9 18 29 52 45 74
17 23 30 47 30 54 0 19 29 24 155 27 150 3 148 4 127 -41z m-1445 -119 c50
-56 56 -112 20 -183 -45 -88 -164 -125 -236 -73 -33 24 -72 101 -65 128 2 11
6 27 8 35 9 37 51 92 85 111 29 16 49 18 100 15 53 -5 67 -10 88 -33z m-665
-63 c34 -38 38 -48 38 -96 0 -48 -4 -58 -36 -94 -57 -63 -97 -83 -149 -76 -93
14 -138 74 -128 169 4 33 14 57 37 82 46 51 82 67 146 62 49 -4 58 -8 92 -47z
m1251 19 c44 -47 57 -74 57 -115 0 -50 -28 -95 -88 -141 -50 -38 -87 -42 -147
-14 -59 27 -76 51 -79 113 -5 72 16 117 73 157 42 29 52 32 104 29 46 -4 63
-10 80 -29z m-517 -1380 c61 -16 109 -65 124 -130 13 -54 8 -82 -13 -73 -8 3
-17 -3 -21 -12 -6 -15 -9 -15 -27 5 -12 12 -24 20 -27 16 -4 -3 0 -10 8 -16
11 -7 7 -8 -14 -3 -27 6 -28 6 -16 -16 6 -12 9 -24 6 -28 -3 -3 -6 1 -6 9 -1
10 -5 8 -15 -5 -19 -25 -19 -40 0 -32 9 3 15 0 15 -9 0 -18 -17 -28 -25 -14
-5 7 -12 3 -22 -10 -27 -40 -52 -24 -62 38 -5 29 -12 36 -39 43 -26 7 -32 14
-32 35 0 14 -3 23 -7 20 -3 -4 -12 1 -19 11 -12 15 -12 14 -7 -8 3 -14 3 -23
0 -20 -3 3 -9 21 -12 40 -4 25 -3 31 5 20 11 -17 13 -10 4 14 -3 9 -11 13 -17
9 -22 -13 38 78 62 93 50 34 91 39 157 23z m434 -14 c0 -9 6 -12 16 -8 13 5
15 0 12 -22 -3 -24 2 -30 30 -39 18 -6 37 -18 42 -26 22 -35 0 -160 -28 -160
-8 0 -21 8 -29 18 -11 12 -13 13 -10 2 2 -9 -7 -20 -23 -27 -22 -9 -27 -16
-23 -37 5 -26 4 -26 -52 -26 -40 0 -69 6 -96 22 -47 26 -56 44 -20 43 17 0 29
7 35 21 8 18 16 20 66 16 59 -4 103 10 130 43 20 24 7 27 -31 8 -19 -10 -57
-17 -87 -17 -43 0 -55 4 -68 22 -16 24 -52 30 -59 10 -3 -7 -17 -14 -31 -15
-25 -1 -26 1 -21 39 7 52 46 110 88 131 45 22 159 24 159 2z m450 -25 c0 -11
-29 -40 -40 -40 -19 0 -21 22 -5 40 16 18 45 17 45 0z m-190 -6 c0 -8 -7 -22
-15 -30 -8 -8 -19 -23 -24 -32 -5 -9 -13 -14 -16 -10 -12 12 -8 57 5 73 16 20
50 19 50 -1z m-490 -181 c-1 -27 -1 -27 -15 -9 -14 19 -12 36 6 36 5 0 9 -12
9 -27z"/>
<path d="M6600 5720 c0 -5 5 -10 11 -10 5 0 7 5 4 10 -3 6 -8 10 -11 10 -2 0
-4 -4 -4 -10z"/>
<path d="M6695 5126 c-28 -13 -82 -33 -120 -46 -39 -13 -99 -36 -133 -52 -35
-15 -68 -28 -73 -28 -6 0 -38 -13 -72 -29 -34 -16 -107 -45 -162 -66 -109 -41
-156 -63 -168 -82 -4 -7 -14 -13 -22 -13 -17 0 -133 -102 -157 -139 -36 -54
-10 -109 58 -120 83 -14 251 23 354 79 19 10 50 26 68 34 37 17 144 98 206
155 71 66 296 331 280 330 -5 0 -32 -10 -59 -23z"/>
<path d="M8137 5204 c-17 -17 -5 -30 29 -31 27 -1 34 2 32 15 -3 17 -48 29
-61 16z"/>
<path d="M8257 5203 c-17 -16 -4 -29 29 -30 27 -1 34 2 30 14 -3 8 -6 17 -6
19 0 7 -46 5 -53 -3z"/>
</g>
</svg>
